<svg xmlns="http://www.w3.org/2000/svg" xmlns:svg="http://www.w3.org/2000/svg" id="svg4" width="13.518" height="13.537" fill="#f2f8fa" class="w-6 h-6" version="1.1" viewBox="0 0 13.518 13.537"><path id="path42" fill-rule="evenodd" d="m 0.05927139,0.70955351 c 0,-0.41421356 0.335786,-0.75 0.75,-0.75 H 12.779284 c 0.999884,1.1546e-4 0.999884,1.50011549 0,1.49999999 H 0.80927139 c -0.414214,0 -0.75,-0.3357864 -0.75,-0.74999999 z m 0,5.91801619 c 0,-0.4142136 0.335786,-0.75 0.75,-0.75 H 12.779284 c 1,0 1,1.5 0,1.5 H 0.80927139 c -0.414214,0 -0.75,-0.3357865 -0.75,-0.75 z m 0,6.1458603 c 0,-0.414213 0.335786,-0.75 0.75,-0.75 H 12.779284 c 1,0 1,1.5 0,1.5 H 0.80927139 c -0.414214,0 -0.75,-0.335786 -0.75,-0.75 z" clip-rule="evenodd"/></svg>